<svg xmlns="http://www.w3.org/2000/svg" viewBox="0 0 226 53" fill="none"><path d="M21.2764 19.8584H10.0557L7.47717 23.6042H1.41272L15.5852 3.80917H21.6496L28.5416 23.6042H22.4772L21.2764 19.8584ZM12.7139 15.9974H20.0674L17.7459 8.70751L12.7139 15.9974ZM56.2136 13.6923C55.9805 14.9601 55.6313 16.0886 55.1662 17.0779C54.7028 18.0576 54.1453 18.9124 53.4934 19.6423C52.8514 20.3723 52.1222 20.9918 51.306 21.5008C50.4995 22.0098 49.6285 22.418 48.6931 22.7254C47.7577 23.0327 46.7689 23.2584 45.7268 23.4025C44.6864 23.537 43.6145 23.6042 42.511 23.6042H29.7375L33.3777 3.80917H46.1219C47.2254 3.80917 48.2717 3.88121 49.2608 4.02528C50.2517 4.15974 51.1584 4.38065 51.9808 4.68799C52.8129 4.99534 53.5435 5.40353 54.1726 5.91258C54.8034 6.41201 55.3047 7.03151 55.6765 7.77106C56.0598 8.50101 56.303 9.35582 56.4061 10.3355C56.5091 11.3151 56.445 12.4341 56.2136 13.6923ZM50.7351 13.6923C50.9099 12.7414 50.9349 11.9154 50.8099 11.2143C50.6947 10.5132 50.4003 9.93689 49.9267 9.48548C49.4646 9.02446 48.8095 8.6835 47.9614 8.46259C47.1152 8.23208 46.0524 8.11683 44.7731 8.11683H38.0201L35.9642 19.2966H42.7172C43.9965 19.2966 45.1008 19.1861 46.0301 18.9652C46.9611 18.7347 47.7425 18.3889 48.3741 17.9279C49.0173 17.4573 49.5255 16.8714 49.8985 16.1703C50.2814 15.4691 50.5602 14.6431 50.7351 13.6923ZM62.6912 23.6042H57.2567L60.8969 3.80917H74.5199C75.9848 3.80917 77.1976 3.95805 78.1585 4.25579C79.1291 4.55353 79.8815 4.97613 80.4156 5.52359C80.9594 6.07105 81.3014 6.73377 81.4416 7.51174C81.5932 8.2801 81.5817 9.13971 81.4068 10.0906C81.2531 10.9262 80.9968 11.6561 80.6379 12.2804C80.2887 12.9047 79.8675 13.4426 79.3744 13.894C78.8927 14.3358 78.3551 14.7104 77.7615 15.0177C77.1678 15.3251 76.5546 15.5796 75.9218 15.7813L81.075 23.6042H74.7176L69.9644 16.3143H64.0318L62.6912 23.6042ZM75.9189 10.0618C75.9896 9.67757 75.9959 9.35101 75.938 9.08209C75.8898 8.81316 75.7537 8.59705 75.5298 8.43378C75.3077 8.26089 74.9889 8.13603 74.5733 8.0592C74.1675 7.98236 73.6473 7.94394 73.0125 7.94394H65.5711L64.7922 12.1796H72.2336C72.8683 12.1796 73.4028 12.1411 73.8368 12.0643C74.2806 11.9875 74.6445 11.8674 74.9284 11.7041C75.2141 11.5313 75.4305 11.3103 75.5776 11.0414C75.7345 10.7725 75.8483 10.4459 75.9189 10.0618ZM82.8715 23.6042L86.5117 3.80917H106.888L106.111 8.03038H91.3165L90.7151 11.3007H104.748L103.972 15.522H89.9388L89.2288 19.383H104.229L103.453 23.6042H82.8715ZM125.625 23.6042L114.547 10.0041L112.046 23.6042H106.611L110.252 3.80917H116.155L127.237 17.4669L129.749 3.80917H135.154L131.514 23.6042H125.625ZM152.573 19.8584H141.353L138.774 23.6042H132.71L146.882 3.80917H152.946L159.838 23.6042H153.774L152.573 19.8584ZM144.011 15.9974H151.364L149.043 8.70751L144.011 15.9974ZM161.034 23.6042L164.675 3.80917H170.109L167.266 19.2677H181.959L181.161 23.6042H161.034ZM183.427 23.6042L187.067 3.80917H192.501L188.861 23.6042H183.427ZM212.088 23.6042L201.01 10.0041L198.509 23.6042H193.075L196.715 3.80917H202.618L213.7 17.4669L216.212 3.80917H221.617L217.977 23.6042H212.088Z" fill="url(#paint0_linear)"/><path fill-rule="evenodd" clip-rule="evenodd" d="M104.959 37.7021C105.131 37.1418 105.275 36.5473 105.391 35.9184C105.622 34.6602 105.687 33.5413 105.584 32.5616C105.481 31.582 105.237 30.7272 104.854 29.9972C104.482 29.2577 103.981 28.6382 103.35 28.1387C102.721 27.6297 101.99 27.2215 101.158 26.9142C100.336 26.6068 99.4293 26.3859 98.4384 26.2514C97.4492 26.1074 96.4029 26.0353 95.2994 26.0353H82.5552L80.4098 37.7021H85.8444L87.1977 30.343H93.9506C95.2299 30.343 96.2927 30.4582 97.139 30.6888C97.987 30.9097 98.6421 31.2506 99.1042 31.7116C99.5778 32.1631 99.8722 32.7393 99.9874 33.4405C100.112 34.1416 100.087 34.9676 99.9126 35.9184C99.7924 36.572 99.6231 37.1665 99.4047 37.7021H104.959ZM104.142 39.7107L97.9556 39.8276C97.8274 39.942 97.6928 40.0508 97.5517 40.1541C96.92 40.6151 96.1386 40.9608 95.2076 41.1914C94.2783 41.4123 93.174 41.5227 91.8947 41.5227H85.1418L85.4099 40.0647L79.9564 40.1678L78.915 45.8304H91.6885C92.792 45.8304 93.8639 45.7631 94.9043 45.6287C95.9464 45.4846 96.9352 45.2589 97.8706 44.9515C98.806 44.6442 99.677 44.236 100.483 43.727C101.3 43.2179 102.029 42.5984 102.671 41.8685C103.231 41.2414 103.721 40.5221 104.142 39.7107ZM106.969 39.6572L112.423 39.5542L111.269 45.8304H105.834L106.969 39.6572ZM119.12 39.4276L123.295 45.8304H129.653L125.357 39.3097L119.12 39.4276ZM125.344 37.7021H107.329L109.474 26.0353H123.097C124.562 26.0353 125.775 26.1842 126.736 26.482C127.707 26.7797 128.459 27.2023 128.993 27.7498C129.537 28.2972 129.879 28.9599 130.019 29.7379C130.171 30.5063 130.159 31.3659 129.984 32.3167C129.831 33.1523 129.574 33.8823 129.215 34.5066C128.866 35.1309 128.445 35.6687 127.952 36.1201C127.47 36.562 126.933 36.9365 126.339 37.2439C126.013 37.4125 125.682 37.5653 125.344 37.7021ZM132.071 39.1828L130.849 45.8304H136.284L137.525 39.0797L132.071 39.1828ZM137.778 37.7021H132.344L134.489 26.0353H139.924L137.778 37.7021ZM144.799 38.9423L147.075 45.8304H153.403L158.418 38.6849L152.626 38.7943L151.184 40.932L150.538 38.8338L144.799 38.9423ZM150.19 37.7021H144.389L140.534 26.0353H146.599L150.19 37.7021ZM153.362 37.7021H159.108L167.297 26.0353H161.233L153.362 37.7021ZM165.606 38.549L164.267 45.8304H184.848L185.625 41.6092H170.625L171.207 38.4432L165.606 38.549ZM185.376 37.7021H165.762L167.908 26.0353H188.284L187.507 30.2566H172.712L172.111 33.5269H186.144L185.376 37.7021ZM124.515 31.3083C124.573 31.5772 124.567 31.9037 124.496 32.2879C124.426 32.6721 124.312 32.9987 124.155 33.2676C124.008 33.5365 123.792 33.7574 123.506 33.9303C123.222 34.0936 122.858 34.2136 122.414 34.2905C121.98 34.3673 121.446 34.4057 120.811 34.4057H113.37L114.149 30.1701H121.59C122.225 30.1701 122.745 30.2085 123.151 30.2854C123.566 30.3622 123.885 30.4871 124.107 30.6599C124.331 30.8232 124.467 31.0393 124.515 31.3083Z" fill="url(#paint1_linear)"/><defs><linearGradient id="paint0_linear" x1="0.000181055" y1="30.4888" x2="212.804" y2="69.6223" gradientUnits="userSpaceOnUse"><stop stop-color="#EB5757"/><stop offset="1" stop-color="#E62887"/></linearGradient><linearGradient id="paint1_linear" x1="74.4996" y1="52.7149" x2="182.836" y2="72.6375" gradientUnits="userSpaceOnUse"><stop stop-color="#EB5757"/><stop offset="1" stop-color="#E62887"/></linearGradient></defs></svg>